   <svg
      width="24"
      height="24"
      viewBox="0 0 24 24"
      fill="none"
      xmlns="http://www.w3.org/2000/svg"
    >
      <path
        d="M11.0717 0L1.37606 5.59781V16.7925L5.09325 14.6456V10.2589C5.09494 10.1835 5.13544 10.1143 5.20069 10.0776C5.23274 10.0588 5.26918 10.0487 5.30633 10.0485C5.34349 10.0482 5.38006 10.0577 5.41238 10.0761L9.92869 12.6823C9.99331 12.7199 10.0469 12.7738 10.0842 12.8386C10.1215 12.9035 10.1411 12.9769 10.1411 13.0517V18.2642C10.1406 18.3013 10.1306 18.3377 10.1121 18.3699C10.0935 18.402 10.0671 18.4289 10.0352 18.4479C10.0033 18.4667 9.96709 18.4767 9.93011 18.4771C9.89314 18.4775 9.85671 18.4682 9.82444 18.4502L6.02381 16.2531L2.30531 18.4018L11.9983 24L21.6924 18.402L17.9768 16.2533L14.1778 18.4476C14.1455 18.4654 14.1091 18.4746 14.0722 18.4743C14.0353 18.4741 13.9991 18.4643 13.9671 18.4461C13.9351 18.4273 13.9085 18.4006 13.8898 18.3685C13.8712 18.3365 13.8611 18.3001 13.8606 18.2631V13.0515C13.8606 12.8977 13.9401 12.759 14.073 12.6825L18.5869 10.0757C18.619 10.0573 18.6554 10.0478 18.6925 10.0481C18.7295 10.0483 18.7657 10.0584 18.7976 10.0772C18.8636 10.1139 18.9049 10.1831 18.9054 10.2585V14.6453L22.6236 16.7929V5.59781H22.6219L12.93 0V4.29375L16.7288 6.48675C16.7938 6.525 16.8328 6.59494 16.8328 6.67125C16.8328 6.74681 16.7931 6.81619 16.7288 6.85425L12.2132 9.46275C12.1483 9.49956 12.075 9.51892 12.0004 9.51892C11.9258 9.51892 11.8524 9.49956 11.7876 9.46275L7.27331 6.85425C7.24122 6.83572 7.21461 6.80903 7.19616 6.77689C7.17772 6.74475 7.16811 6.70831 7.16831 6.67125C7.16804 6.63398 7.1776 6.59729 7.19604 6.5649C7.21448 6.53251 7.24113 6.50555 7.27331 6.48675L11.0715 4.29375L11.0717 0Z"
        fill="black"
      />
    </svg>