<svg width="24" height="24" viewBox="0 0 24 24" fill="none" xmlns="http://www.w3.org/2000/svg">
<mask id="mask0_79_361" style="mask-type:luminance" maskUnits="userSpaceOnUse" x="0" y="0" width="24" height="24">
<path d="M16.9524 23.8682C17.1426 23.9429 17.346 23.9775 17.5501 23.9696C17.7541 23.9617 17.9543 23.9115 18.1383 23.8223L23.06 21.4353C23.3135 21.3123 23.5274 21.1196 23.6771 20.8795C23.8267 20.6394 23.9061 20.3616 23.9061 20.0781V3.89262C23.9061 3.60907 23.8267 3.33128 23.677 3.0912C23.5274 2.85111 23.3135 2.65849 23.06 2.53548L18.1384 0.148428C17.8603 0.0135886 17.5474 -0.0307991 17.2432 0.0214064C16.939 0.0736119 16.6583 0.21983 16.4402 0.43983L7.01802 9.10392L2.91382 5.96389C2.72869 5.82225 2.5002 5.7504 2.26801 5.76081C2.03581 5.77121 1.81455 5.86322 1.64263 6.02087L0.326338 7.22777C-0.107706 7.62566 -0.108175 8.31391 0.325213 8.71246L3.88447 11.9853L0.325213 15.2581C-0.108175 15.6568 -0.107706 16.3449 0.326338 16.7429L1.64263 17.9497C1.81454 18.1074 2.03579 18.1994 2.26799 18.2098C2.50019 18.2203 2.72868 18.1484 2.91382 18.0068L7.01802 14.8667L16.4402 23.5308C16.5858 23.6778 16.7603 23.7927 16.9524 23.8682ZM17.9333 6.51551L10.7841 11.9853L17.9333 17.4551V6.51551Z" fill="white"/>
</mask>
<g mask="url(#mask0_79_361)">
<path d="M23.0746 2.53918L18.149 0.14882C17.8709 0.0138297 17.5579 -0.0306757 17.2536 0.0214628C16.9492 0.0736013 16.6684 0.219806 16.4501 0.439844L0.325389 15.2581C-0.10828 15.6568 -0.107718 16.3449 0.326514 16.7429L1.64365 17.9497C1.81571 18.1074 2.0371 18.1995 2.26944 18.2099C2.50177 18.2203 2.7304 18.1485 2.91569 18.0068L22.3335 3.15931C22.9849 2.66126 23.9206 3.12954 23.9206 3.95367V3.89603C23.9206 3.61255 23.8412 3.33482 23.6915 3.09479C23.5419 2.85477 23.3281 2.66218 23.0746 2.53918Z" fill="#0065A9"/>
</g>
<mask id="mask1_79_361" style="mask-type:luminance" maskUnits="userSpaceOnUse" x="0" y="0" width="24" height="24">
<path d="M16.9524 23.8682C17.1426 23.9429 17.346 23.9775 17.5501 23.9696C17.7541 23.9617 17.9543 23.9115 18.1383 23.8223L23.06 21.4353C23.3135 21.3123 23.5274 21.1196 23.6771 20.8795C23.8267 20.6394 23.9061 20.3616 23.9061 20.0781V3.89262C23.9061 3.60907 23.8267 3.33128 23.677 3.0912C23.5274 2.85111 23.3135 2.65849 23.06 2.53548L18.1384 0.148428C17.8603 0.0135886 17.5474 -0.0307991 17.2432 0.0214064C16.939 0.0736119 16.6583 0.21983 16.4402 0.43983L7.01802 9.10392L2.91382 5.96389C2.72869 5.82225 2.5002 5.7504 2.26801 5.76081C2.03581 5.77121 1.81455 5.86322 1.64263 6.02087L0.326338 7.22777C-0.107706 7.62566 -0.108175 8.31391 0.325213 8.71246L3.88447 11.9853L0.325213 15.2581C-0.108175 15.6568 -0.107706 16.3449 0.326338 16.7429L1.64263 17.9497C1.81454 18.1074 2.03579 18.1994 2.26799 18.2098C2.50019 18.2203 2.72868 18.1484 2.91382 18.0068L7.01802 14.8667L16.4402 23.5308C16.5858 23.6778 16.7603 23.7927 16.9524 23.8682ZM17.9333 6.51551L10.7841 11.9853L17.9333 17.4551V6.51551Z" fill="white"/>
</mask>
<g mask="url(#mask1_79_361)">
<path d="M23.0746 21.4314L18.149 23.8218C17.8708 23.9567 17.5579 24.0012 17.2536 23.9491C16.9492 23.8969 16.6684 23.7508 16.4501 23.5308L0.325389 8.71248C-0.10828 8.31393 -0.107718 7.62568 0.326514 7.22779L1.64365 6.02089C1.81572 5.86321 2.03712 5.77119 2.26945 5.76079C2.50179 5.75038 2.73041 5.82224 2.91569 5.96391L22.3335 20.8113C22.9849 21.3094 23.9206 20.8411 23.9206 20.0169V20.0746C23.9206 20.3581 23.8412 20.6358 23.6915 20.8758C23.5419 21.1159 23.3281 21.3084 23.0746 21.4314Z" fill="#007ACC"/>
</g>
<mask id="mask2_79_361" style="mask-type:luminance" maskUnits="userSpaceOnUse" x="0" y="0" width="24" height="24">
<path d="M16.9524 23.8682C17.1426 23.9429 17.346 23.9775 17.5501 23.9696C17.7541 23.9617 17.9543 23.9115 18.1383 23.8223L23.06 21.4353C23.3135 21.3123 23.5274 21.1196 23.6771 20.8795C23.8267 20.6394 23.9061 20.3616 23.9061 20.0781V3.89262C23.9061 3.60907 23.8267 3.33128 23.677 3.0912C23.5274 2.85111 23.3135 2.65849 23.06 2.53548L18.1384 0.148428C17.8603 0.0135886 17.5474 -0.0307991 17.2432 0.0214064C16.939 0.0736119 16.6583 0.21983 16.4402 0.43983L7.01802 9.10392L2.91382 5.96389C2.72869 5.82225 2.5002 5.7504 2.26801 5.76081C2.03581 5.77121 1.81455 5.86322 1.64263 6.02087L0.326338 7.22777C-0.107706 7.62566 -0.108175 8.31391 0.325213 8.71246L3.88447 11.9853L0.325213 15.2581C-0.108175 15.6568 -0.107706 16.3449 0.326338 16.7429L1.64263 17.9497C1.81454 18.1074 2.03579 18.1994 2.26799 18.2098C2.50019 18.2203 2.72868 18.1484 2.91382 18.0068L7.01802 14.8667L16.4402 23.5308C16.5858 23.6778 16.7603 23.7927 16.9524 23.8682ZM17.9333 6.51551L10.7841 11.9853L17.9333 17.4551V6.51551Z" fill="white"/>
</mask>
<g mask="url(#mask2_79_361)">
<path d="M18.1336 23.8237C17.8553 23.9586 17.5424 24.003 17.238 23.9509C16.9336 23.8987 16.6528 23.7524 16.4344 23.5324C16.9858 24.088 17.9286 23.6944 17.9286 22.9085V1.06515C17.9286 0.279202 16.9858 -0.114342 16.4344 0.441343C16.6528 0.221263 16.9336 0.0750053 17.238 0.0228006C17.5424 -0.0294041 17.8553 0.015025 18.1336 0.149942L23.0584 2.537C23.3119 2.65994 23.5259 2.85253 23.6756 3.09262C23.8254 3.33271 23.9049 3.61054 23.9049 3.89413V20.0797C23.9049 20.6584 23.5758 21.186 23.0584 21.4368L18.1336 23.8237Z" fill="#1F9CF0"/>
</g>
<mask id="mask3_79_361" style="mask-type:luminance" maskUnits="userSpaceOnUse" x="0" y="0" width="24" height="24">
<path d="M16.9524 23.8682C17.1426 23.9429 17.346 23.9775 17.5501 23.9696C17.7541 23.9617 17.9543 23.9115 18.1383 23.8223L23.06 21.4353C23.3135 21.3123 23.5274 21.1196 23.6771 20.8795C23.8267 20.6394 23.9061 20.3616 23.9061 20.0781V3.89262C23.9061 3.60907 23.8267 3.33128 23.677 3.0912C23.5274 2.85111 23.3135 2.65849 23.06 2.53548L18.1384 0.148428C17.8603 0.0135886 17.5474 -0.0307991 17.2432 0.0214064C16.939 0.0736119 16.6583 0.21983 16.4402 0.43983L7.01802 9.10392L2.91382 5.96389C2.72869 5.82225 2.5002 5.7504 2.26801 5.76081C2.03581 5.77121 1.81455 5.86322 1.64263 6.02087L0.326338 7.22777C-0.107706 7.62566 -0.108175 8.31391 0.325213 8.71246L3.88447 11.9853L0.325213 15.2581C-0.108175 15.6568 -0.107706 16.3449 0.326338 16.7429L1.64263 17.9497C1.81454 18.1074 2.03579 18.1994 2.26799 18.2098C2.50019 18.2203 2.72868 18.1484 2.91382 18.0068L7.01802 14.8667L16.4402 23.5308C16.5858 23.6778 16.7603 23.7927 16.9524 23.8682ZM17.9333 6.51551L10.7841 11.9853L17.9333 17.4551V6.51551Z" fill="white"/>
</mask>
<g mask="url(#mask3_79_361)">
<path d="M16.9524 23.8682C17.1426 23.943 17.346 23.9775 17.5501 23.9696C17.7541 23.9617 17.9543 23.9115 18.1383 23.8223L23.0599 21.4352C23.3134 21.3122 23.5273 21.1196 23.677 20.8795C23.8267 20.6394 23.9061 20.3616 23.9061 20.0781V3.89262C23.9061 3.60907 23.8267 3.33128 23.677 3.0912C23.5274 2.85112 23.3135 2.65849 23.06 2.53549L18.1382 0.148337C17.8601 0.0135186 17.5473 -0.0308574 17.2431 0.0213476C16.9388 0.0735527 16.6582 0.219758 16.4401 0.439738L7.01802 9.10393L2.91382 5.9639C2.72869 5.82225 2.5002 5.7504 2.26801 5.76081C2.03581 5.77122 1.81455 5.86322 1.64263 6.02087L0.326338 7.22777C-0.107706 7.62566 -0.108175 8.31391 0.325213 8.71246L3.88447 11.9853L0.325213 15.2581C-0.108175 15.6568 -0.107706 16.3449 0.326338 16.7429L1.64263 17.9497C1.81454 18.1074 2.03579 18.1994 2.26799 18.2098C2.50019 18.2203 2.72868 18.1484 2.91382 18.0068L7.01802 14.8667L16.4401 23.5308C16.5858 23.6777 16.7603 23.7926 16.9524 23.8682ZM17.9333 6.51542L10.7841 11.9853L17.9333 17.4551V6.51542Z" fill="url(#paint0_linear_79_361)" fill-opacity="0.25"/>
</g>
<defs>
<linearGradient id="paint0_linear_79_361" x1="1195.28" y1="6.10352e-05" x2="1195.28" y2="2397.06" gradientUnits="userSpaceOnUse">
<stop stop-color="white"/>
<stop offset="1" stop-color="white" stop-opacity="0"/>
</linearGradient>
</defs>
</svg>
