<svg width="53" height="32" viewBox="0 0 53 32" fill="none" xmlns="http://www.w3.org/2000/svg">
<g clip-path="url(#clip0_68_44)">
<path d="M0.973114 26V1.33801H10.0931C13.0445 1.33801 15.3055 2.02834 16.8761 3.40901C18.4595 4.78968 19.2511 6.62001 19.2511 8.90001C19.2511 11.142 18.4595 12.9533 16.8761 14.334C15.3055 15.702 13.0445 16.386 10.0931 16.386H5.45712V26H0.973114ZM14.3111 26L7.77512 14.448H12.5631L20.1631 26H14.3111ZM5.45712 13.384H9.63712C11.2838 13.384 12.5315 13.0103 13.3801 12.263C14.2288 11.503 14.6531 10.5213 14.6531 9.31801C14.6531 8.08934 14.2668 7.10134 13.4941 6.35401C12.7215 5.59401 11.5878 5.21401 10.0931 5.21401H5.45712V13.384Z" fill="white"/>
<path d="M21.7823 32V7.33801H31.7383C33.6383 7.33801 35.2153 7.63568 36.4693 8.23101C37.7233 8.81368 38.6607 9.59901 39.2813 10.587C39.902 11.575 40.2123 12.6707 40.2123 13.874C40.2123 15.2673 39.8197 16.458 39.0343 17.446C38.2617 18.434 37.1723 19.1307 35.7663 19.536C36.691 19.726 37.5207 20.0743 38.2553 20.581C38.99 21.0877 39.5663 21.7273 39.9843 22.5C40.415 23.2727 40.6303 24.1593 40.6303 25.16C40.6303 25.9453 40.491 26.737 40.2123 27.535C39.9463 28.333 39.4777 29.074 38.8063 29.758C38.1477 30.4293 37.242 30.974 36.0893 31.392C34.9493 31.7973 33.5117 32 31.7763 32H21.7823ZM26.2663 28.086H31.6623C33.0937 28.086 34.1387 27.801 34.7973 27.231C35.4687 26.6483 35.8043 25.8693 35.8043 24.894C35.8043 23.9187 35.4623 23.1397 34.7783 22.557C34.0943 21.9617 33.0557 21.664 31.6623 21.664H26.2663V28.086ZM26.2663 11.214V17.75H31.5483C32.8783 17.75 33.8853 17.4587 34.5693 16.876C35.266 16.2807 35.6143 15.47 35.6143 14.444C35.6143 13.4687 35.2723 12.6897 34.5883 12.107C33.917 11.5117 32.9163 11.214 31.5863 11.214H26.2663Z" fill="white"/>
<path d="M47.9017 26C50.7173 26 52.9997 23.7614 52.9997 21C52.9997 18.2386 50.7173 16 47.9017 16C45.0861 16 42.8036 18.2386 42.8036 21C42.8036 23.7614 45.0861 26 47.9017 26Z" fill="#EB5E28"/>
</g>
<defs>
<clipPath id="clip0_68_44">
<rect width="53" height="32" fill="white"/>
</clipPath>
</defs>
</svg>
