<svg width="24" height="24" viewBox="0 0 24 24" fill="none" xmlns="http://www.w3.org/2000/svg">
<path d="M11.8985 0.0067749C5.82197 0.0067749 6.20137 2.65289 6.20137 2.65289L6.20812 5.39435H12.0068V6.21741H3.90496C3.90496 6.21741 0.0166016 5.77459 0.0166016 11.9313C0.0166016 18.0882 3.41046 17.8698 3.41046 17.8698H5.4359V15.0128C5.4359 15.0128 5.32671 11.6048 8.77559 11.6048H14.5269C14.5269 11.6048 17.7581 11.6572 17.7581 8.46889V3.19718C17.7581 3.19718 18.2489 0.0067749 11.8985 0.0067749ZM8.70108 1.85035C8.8381 1.85023 8.97381 1.87724 9.10043 1.92984C9.22705 1.98244 9.3421 2.05959 9.43899 2.15689C9.53589 2.25419 9.61272 2.36971 9.6651 2.49686C9.71748 2.62401 9.74438 2.76028 9.74426 2.89788C9.74438 3.03548 9.71748 3.17175 9.6651 3.2989C9.61272 3.42605 9.53589 3.54158 9.43899 3.63887C9.3421 3.73617 9.22705 3.81332 9.10043 3.86592C8.97381 3.91852 8.8381 3.94553 8.70108 3.94541C8.56405 3.94553 8.42834 3.91852 8.30172 3.86592C8.1751 3.81332 8.06005 3.73617 7.96316 3.63887C7.86627 3.54158 7.78943 3.42605 7.73705 3.2989C7.68467 3.17175 7.65777 3.03548 7.65789 2.89788C7.65777 2.76028 7.68467 2.62401 7.73705 2.49686C7.78943 2.36971 7.86627 2.25419 7.96316 2.15689C8.06005 2.05959 8.1751 1.98244 8.30172 1.92984C8.42834 1.87724 8.56405 1.85023 8.70108 1.85035Z" fill="url(#paint0_linear_79_339)"/>
<path d="M12.0709 23.9177C18.1474 23.9177 17.768 21.2716 17.768 21.2716L17.7613 18.5302H11.9625V17.7072H20.0643C20.0643 17.7072 23.9527 18.15 23.9527 11.9931C23.9527 5.83632 20.5588 6.05467 20.5588 6.05467H18.5334V8.91161C18.5334 8.91161 18.6426 12.3196 15.1937 12.3196H9.44243C9.44243 12.3196 6.21118 12.2672 6.21118 15.4556V20.7274C6.21118 20.7274 5.72052 23.9177 12.0708 23.9177M15.2682 22.0743C15.1312 22.0745 14.9955 22.0475 14.8689 21.9949C14.7422 21.9423 14.6272 21.8651 14.5303 21.7678C14.4334 21.6705 14.3566 21.555 14.3042 21.4278C14.2518 21.3007 14.2249 21.1644 14.225 21.0268C14.2249 20.8892 14.2518 20.7529 14.3042 20.6258C14.3565 20.4986 14.4334 20.3831 14.5303 20.2858C14.6272 20.1884 14.7422 20.1113 14.8688 20.0587C14.9955 20.0061 15.1312 19.9791 15.2682 19.9792C15.4052 19.9791 15.541 20.0061 15.6676 20.0587C15.7942 20.1113 15.9092 20.1884 16.0061 20.2857C16.103 20.383 16.1799 20.4985 16.2322 20.6257C16.2846 20.7528 16.3115 20.8891 16.3114 21.0267C16.3115 21.1643 16.2846 21.3006 16.2322 21.4277C16.1799 21.5549 16.103 21.6704 16.0061 21.7677C15.9092 21.865 15.7942 21.9422 15.6676 21.9948C15.541 22.0474 15.4052 22.0745 15.2682 22.0743Z" fill="url(#paint1_linear_79_339)"/>
<defs>
<linearGradient id="paint0_linear_79_339" x1="230.043" y1="215.072" x2="1421.13" y2="1389.39" gradientUnits="userSpaceOnUse">
<stop stop-color="#387EB8"/>
<stop offset="1" stop-color="#366994"/>
</linearGradient>
<linearGradient id="paint1_linear_79_339" x1="345.73" y1="373.677" x2="1624.58" y2="1577.6" gradientUnits="userSpaceOnUse">
<stop stop-color="#FFE052"/>
<stop offset="1" stop-color="#FFC331"/>
</linearGradient>
</defs>
</svg>
