<svg
      width="24"
      height="24"
      viewBox="0 0 24 24"
      fill="none"
      xmlns="http://www.w3.org/2000/svg"
    >
      <path
        d="M12 14.1375C13.1805 14.1375 14.1375 13.1805 14.1375 12C14.1375 10.8195 13.1805 9.86249 12 9.86249C10.8195 9.86249 9.8625 10.8195 9.8625 12C9.8625 13.1805 10.8195 14.1375 12 14.1375Z"
        fill="#61DAFB"
      />
      <path
        d="M20.1187 8.47499C19.7062 8.32499 19.275 8.17499 18.825 8.04374C18.9375 7.59374 19.0312 7.14374 19.1062 6.71249C19.5 4.23749 19.0687 2.49374 17.8687 1.81874C17.5125 1.61249 17.1187 1.51874 16.6687 1.51874C15.3562 1.51874 13.6875 2.49374 12 4.12499C10.3125 2.49374 8.64375 1.51874 7.33125 1.51874C6.88125 1.51874 6.4875 1.61249 6.13125 1.81874C4.93125 2.51249 4.5 4.25624 4.89375 6.71249C4.96875 7.14374 5.0625 7.59374 5.175 8.04374C4.725 8.17499 4.29375 8.30624 3.88125 8.47499C1.5375 9.37499 0.262497 10.6125 0.262497 12C0.262497 13.3875 1.55625 14.625 3.88125 15.525C4.29375 15.675 4.725 15.825 5.175 15.9562C5.0625 16.4062 4.96875 16.8562 4.89375 17.2875C4.5 19.7625 4.93125 21.5062 6.13125 22.1812C6.4875 22.3875 6.88125 22.4812 7.33125 22.4812C8.6625 22.4812 10.3312 21.5062 12 19.875C13.6875 21.5062 15.3562 22.4812 16.6687 22.4812C17.1187 22.4812 17.5125 22.3875 17.8687 22.1812C19.0687 21.4875 19.5 19.7437 19.1062 17.2875C19.0312 16.8562 18.9375 16.4062 18.825 15.9562C19.275 15.825 19.7062 15.6937 20.1187 15.525C22.4625 14.625 23.7375 13.3875 23.7375 12C23.7375 10.6125 22.4625 9.37499 20.1187 8.47499ZM17.3437 2.75624C18.1125 3.20624 18.375 4.59374 18.0562 6.56249C18 6.95624 17.9062 7.36874 17.7937 7.79999C16.8187 7.57499 15.7875 7.42499 14.7 7.33124C14.0625 6.43124 13.4062 5.62499 12.75 4.89374C14.1375 3.52499 15.5437 2.58749 16.6875 2.58749C16.9312 2.58749 17.1562 2.64374 17.3437 2.75624ZM15.2437 13.875C14.9062 14.475 14.5125 15.075 14.1 15.675C13.4062 15.7312 12.7125 15.75 12 15.75C11.2687 15.75 10.575 15.7312 9.9 15.675C9.4875 15.075 9.1125 14.475 8.775 13.875C8.41875 13.2562 8.08125 12.6187 7.78125 12C8.08125 11.3812 8.41875 10.7437 8.775 10.125C9.1125 9.52499 9.50625 8.92499 9.91875 8.32499C10.6125 8.26874 11.3062 8.24999 12.0187 8.24999C12.75 8.24999 13.4437 8.26874 14.1187 8.32499C14.5312 8.92499 14.9062 9.52499 15.2437 10.125C15.6 10.7437 15.9375 11.3812 16.2375 12C15.9187 12.6187 15.6 13.2375 15.2437 13.875ZM16.8 13.2562C17.0812 13.9125 17.3062 14.55 17.5125 15.1875C16.875 15.3375 16.2 15.45 15.4875 15.5437C15.7125 15.1875 15.9562 14.8125 16.1625 14.4187C16.3875 14.025 16.5937 13.6312 16.8 13.2562ZM12 18.3375C11.55 17.85 11.1187 17.325 10.7062 16.7812C11.1375 16.8 11.5687 16.8187 12 16.8187C12.4312 16.8187 12.8625 16.8 13.2937 16.7812C12.8812 17.325 12.45 17.85 12 18.3375ZM8.5125 15.525C7.8 15.4312 7.125 15.3187 6.4875 15.1687C6.69375 14.55 6.91875 13.8937 7.2 13.2375C7.40625 13.6125 7.6125 14.0062 7.8375 14.3812C8.0625 14.7937 8.2875 15.15 8.5125 15.525ZM7.2 10.7437C6.91875 10.0875 6.69375 9.44999 6.4875 8.81249C7.125 8.66249 7.8 8.54999 8.5125 8.45624C8.2875 8.81249 8.04375 9.18749 7.8375 9.58124C7.6125 9.97499 7.40625 10.3687 7.2 10.7437ZM12 5.66249C12.45 6.14999 12.8812 6.67499 13.2937 7.21874C12.8625 7.19999 12.4312 7.18124 12 7.18124C11.5687 7.18124 11.1375 7.19999 10.7062 7.21874C11.1187 6.67499 11.55 6.14999 12 5.66249ZM16.1625 9.59999L15.4875 8.47499C16.2 8.56874 16.875 8.68124 17.5125 8.83124C17.3062 9.44999 17.0812 10.1062 16.8 10.7625C16.5937 10.3687 16.3875 9.97499 16.1625 9.59999ZM5.94375 6.56249C5.625 4.59374 5.8875 3.20624 6.65625 2.75624C6.84375 2.64374 7.06875 2.58749 7.3125 2.58749C8.4375 2.58749 9.84375 3.50624 11.25 4.89374C10.5937 5.60624 9.9375 6.43124 9.3 7.33124C8.2125 7.42499 7.18125 7.59374 6.20625 7.79999C6.09375 7.36874 6.01875 6.95624 5.94375 6.56249ZM1.3125 12C1.3125 11.1187 2.38125 10.1812 4.25625 9.48749C4.63125 9.33749 5.04375 9.20624 5.45625 9.09374C5.75625 10.0312 6.13125 11.025 6.58125 12.0187C6.13125 13.0125 5.7375 13.9875 5.45625 14.925C2.86875 14.175 1.3125 13.05 1.3125 12ZM6.65625 21.2437C5.8875 20.7937 5.625 19.4062 5.94375 17.4375C6 17.0437 6.09375 16.6312 6.20625 16.2C7.18125 16.425 8.2125 16.575 9.3 16.6687C9.9375 17.5687 10.5937 18.375 11.25 19.1062C9.8625 20.475 8.45625 21.4125 7.3125 21.4125C7.06875 21.4125 6.84375 21.3562 6.65625 21.2437ZM18.0562 17.4375C18.375 19.4062 18.1125 20.7937 17.3437 21.2437C17.1562 21.3562 16.9312 21.4125 16.6875 21.4125C15.5625 21.4125 14.1562 20.4937 12.75 19.1062C13.4062 18.3937 14.0625 17.5687 14.7 16.6687C15.7875 16.575 16.8187 16.4062 17.7937 16.2C17.9062 16.6312 17.9812 17.0437 18.0562 17.4375ZM19.7437 14.5125C19.3687 14.6625 18.9562 14.7937 18.5437 14.9062C18.2437 13.9687 17.8687 12.975 17.4187 11.9812C17.8687 10.9875 18.2625 10.0125 18.5437 9.07499C21.1312 9.82499 22.6875 10.95 22.6875 12C22.6875 12.8812 21.6 13.8187 19.7437 14.5125Z"
        fill="#61DAFB"
      />
    </svg>