<svg width="48" height="36" viewBox="0 0 48 36" fill="none" xmlns="http://www.w3.org/2000/svg">
<path d="M34.8333 0.666687C37.2297 0.666687 39.0692 2.49319 40.432 4.45835L40.8935 5.15385L41.316 5.84719C41.4503 6.07396 41.5789 6.29641 41.7017 6.51452C43.4068 9.56302 44.891 13.5432 45.8725 17.4757C46.8475 21.3779 47.387 25.4534 47.0425 28.6579C46.6958 31.8754 45.0383 35.3334 41.3333 35.3334C38.0097 35.3334 35.3902 33.5567 33.2625 31.8212L30.8575 29.804C28.8577 28.166 26.6693 26.6667 24 26.6667C21.3307 26.6667 19.1402 28.166 17.1447 29.804L14.7397 31.819C12.6077 33.5567 9.98817 35.3334 6.66667 35.3334C2.9595 35.3334 1.302 31.8754 0.957504 28.6579C0.615171 25.4512 1.1525 21.3779 2.1275 17.4757C3.109 13.5432 4.59317 9.56302 6.29834 6.51452L6.684 5.84502L7.1065 5.15385L7.568 4.45835C8.93084 2.49319 10.7703 0.666687 13.1667 0.666687C14.2717 0.666687 15.3702 0.935354 16.4492 1.25169L17.734 1.64602C17.9463 1.71102 18.1572 1.77313 18.3667 1.83235C20.2408 2.36969 22.1583 2.83335 24 2.83335C25.8417 2.83335 27.7592 2.36969 29.6333 1.83235L31.5508 1.25385C32.6298 0.935353 33.7283 0.666687 34.8333 0.666687ZM16.4167 9.33335C14.9801 9.33335 13.6023 9.90404 12.5865 10.9199C11.5707 11.9357 11 13.3134 11 14.75C11 16.1866 11.5707 17.5644 12.5865 18.5802C13.6023 19.596 14.9801 20.1667 16.4167 20.1667C17.8533 20.1667 19.231 19.596 20.2468 18.5802C21.2627 17.5644 21.8333 16.1866 21.8333 14.75C21.8333 13.3134 21.2627 11.9357 20.2468 10.9199C19.231 9.90404 17.8533 9.33335 16.4167 9.33335ZM31.5833 9.33335C31.0087 9.33335 30.4576 9.56163 30.0513 9.96796C29.6449 10.3743 29.4167 10.9254 29.4167 11.5V12.5834H28.3333C27.7587 12.5834 27.2076 12.8116 26.8013 13.218C26.3949 13.6243 26.1667 14.1754 26.1667 14.75C26.1667 15.3247 26.3949 15.8758 26.8013 16.2821C27.2076 16.6884 27.7587 16.9167 28.3333 16.9167H29.4167V18C29.4167 18.5747 29.6449 19.1258 30.0513 19.5321C30.4576 19.9384 31.0087 20.1667 31.5833 20.1667C32.158 20.1667 32.7091 19.9384 33.1154 19.5321C33.5217 19.1258 33.75 18.5747 33.75 18V16.9167H34.8333C35.408 16.9167 35.9591 16.6884 36.3654 16.2821C36.7717 15.8758 37 15.3247 37 14.75C37 14.1754 36.7717 13.6243 36.3654 13.218C35.9591 12.8116 35.408 12.5834 34.8333 12.5834H33.75V11.5C33.75 10.9254 33.5217 10.3743 33.1154 9.96796C32.7091 9.56163 32.158 9.33335 31.5833 9.33335ZM16.4167 13.6667C16.704 13.6667 16.9795 13.7808 17.1827 13.984C17.3859 14.1872 17.5 14.4627 17.5 14.75C17.5 15.0373 17.3859 15.3129 17.1827 15.5161C16.9795 15.7192 16.704 15.8334 16.4167 15.8334C16.1294 15.8334 15.8538 15.7192 15.6506 15.5161C15.4475 15.3129 15.3333 15.0373 15.3333 14.75C15.3333 14.4627 15.4475 14.1872 15.6506 13.984C15.8538 13.7808 16.1294 13.6667 16.4167 13.6667Z" fill="#CDCDCD" fill-opacity="0.866667"/>
</svg>
