<svg width="46" height="46" viewBox="0 0 46 46" fill="none" xmlns="http://www.w3.org/2000/svg">
<mask id="mask0_201_304" style="mask-type:luminance" maskUnits="userSpaceOnUse" x="0" y="0" width="46" height="46">
<path d="M23 44.6666C34.9665 44.6666 44.6667 34.9665 44.6667 23C44.6667 11.0335 34.9665 1.33331 23 1.33331C11.0335 1.33331 1.33333 11.0335 1.33333 23C1.33333 34.9665 11.0335 44.6666 23 44.6666Z" fill="white" stroke="white" stroke-width="2" stroke-linejoin="round"/>
<path d="M23 16.5C23.8619 16.5 24.6886 16.1576 25.2981 15.5481C25.9076 14.9386 26.25 14.112 26.25 13.25C26.25 12.388 25.9076 11.5614 25.2981 10.9519C24.6886 10.3424 23.8619 10 23 10C22.138 10 21.3114 10.3424 20.7019 10.9519C20.0924 11.5614 19.75 12.388 19.75 13.25C19.75 14.112 20.0924 14.9386 20.7019 15.5481C21.3114 16.1576 22.138 16.5 23 16.5ZM23 36C23.8619 36 24.6886 35.6576 25.2981 35.0481C25.9076 34.4386 26.25 33.612 26.25 32.75C26.25 31.888 25.9076 31.0614 25.2981 30.4519C24.6886 29.8424 23.8619 29.5 23 29.5C22.138 29.5 21.3114 29.8424 20.7019 30.4519C20.0924 31.0614 19.75 31.888 19.75 32.75C19.75 33.612 20.0924 34.4386 20.7019 35.0481C21.3114 35.6576 22.138 36 23 36ZM13.25 26.25C14.1119 26.25 14.9386 25.9076 15.5481 25.2981C16.1576 24.6886 16.5 23.862 16.5 23C16.5 22.138 16.1576 21.3114 15.5481 20.7019C14.9386 20.0924 14.1119 19.75 13.25 19.75C12.388 19.75 11.5614 20.0924 10.9519 20.7019C10.3424 21.3114 9.99999 22.138 9.99999 23C9.99999 23.862 10.3424 24.6886 10.9519 25.2981C11.5614 25.9076 12.388 26.25 13.25 26.25ZM32.75 26.25C33.6119 26.25 34.4386 25.9076 35.0481 25.2981C35.6576 24.6886 36 23.862 36 23C36 22.138 35.6576 21.3114 35.0481 20.7019C34.4386 20.0924 33.6119 19.75 32.75 19.75C31.888 19.75 31.0614 20.0924 30.4519 20.7019C29.8424 21.3114 29.5 22.138 29.5 23C29.5 23.862 29.8424 24.6886 30.4519 25.2981C31.0614 25.9076 31.888 26.25 32.75 26.25Z" fill="black" stroke="black" stroke-width="2" stroke-linejoin="round"/>
<path d="M23 44.6666H44.6667" stroke="white" stroke-width="2" stroke-linecap="round"/>
</mask>
<g mask="url(#mask0_201_304)">
<path d="M-3 -3H49V49H-3V-3Z" fill="#CDCDCD" fill-opacity="0.866667"/>
</g>
</svg>
