<svg
      width="24"
      height="24"
      viewBox="0 0 24 24"
      fill="none"
      xmlns="http://www.w3.org/2000/svg"
    >
      <path
        d="M21.6375 5.75626L12.5813 0.543756C12.4313 0.450006 12.225 0.412506 12 0.412506C11.775 0.412506 11.5688 0.468756 11.4188 0.543756L2.41875 5.77501C2.1 5.96251 1.875 6.43126 1.875 6.78751V17.2313C1.875 17.4375 1.9125 17.6813 2.0625 17.8875L22.0875 6.26251C21.975 6.03751 21.8063 5.86876 21.6375 5.75626Z"
        fill="#9B4F96"
      />
      <path
        d="M2.00626 17.8687C2.10001 18.0187 2.23126 18.15 2.36251 18.225L11.4 23.4562C11.55 23.55 11.7563 23.5875 11.9813 23.5875C12.2063 23.5875 12.4125 23.5312 12.5625 23.4562L21.5625 18.225C21.8813 18.0375 22.1063 17.5687 22.1063 17.2125V6.76874C22.1063 6.59999 22.0875 6.41249 21.9938 6.24374L2.00626 17.8687Z"
        fill="#68217A"
      />
      <path
        d="M15.9937 14.2687C15.2063 15.6562 13.7062 16.5938 12 16.5938C9.46875 16.5938 7.40625 14.5312 7.40625 12C7.40625 9.46875 9.46875 7.40625 12 7.40625C13.7062 7.40625 15.2063 8.34375 15.9937 9.75L18.4312 8.34375C17.1562 6.1125 14.7562 4.59375 12 4.59375C7.9125 4.59375 4.59375 7.9125 4.59375 12C4.59375 16.0875 7.9125 19.4062 12 19.4062C14.7375 19.4062 17.1375 17.9062 18.4125 15.6937L15.9937 14.2687ZM18.1875 12.4125L18.3562 11.6063H17.5687V10.725H18.525L18.75 9.5625H19.6687L19.4437 10.7062H20.1562L20.3812 9.5625H21.2812L21.0562 10.7062H21.5062V11.5875H20.8875L20.7187 12.3937H21.5062V13.275H20.55L20.325 14.4H19.4062L19.6312 13.275H18.9187L18.6937 14.4H17.7937L18.0187 13.275H17.5687V12.3937H18.1875V12.4125ZM19.0875 12.4125H19.8L19.9687 11.6063H19.2562L19.0875 12.4125Z"
        fill="white"
      />
    </svg>