<svg width="24" height="24" viewBox="0 0 24 24" fill="none" xmlns="http://www.w3.org/2000/svg">
<path d="M12.5547 0.154682C12.3824 0.0560047 12.1874 0.00408936 11.9889 0.00408936C11.7904 0.00408936 11.5953 0.0560047 11.4231 0.154682L2.08186 5.57999C1.72654 5.78099 1.52686 6.16031 1.52686 6.56249V17.4352C1.52686 17.8371 1.74867 18.2166 2.08148 18.4177L11.4227 23.8429C11.595 23.9416 11.7901 23.9935 11.9886 23.9935C12.1871 23.9935 12.3822 23.9416 12.5545 23.8429L21.8957 18.4176C22.2509 18.2166 22.4504 17.8371 22.4504 17.4351V6.56249C22.4504 6.16049 22.2285 5.78118 21.8957 5.57999L12.5547 0.154682Z" fill="url(#paint0_linear_79_345)"/>
<path d="M21.9182 5.58003L12.5327 0.154714C12.4407 0.10768 12.344 0.070294 12.2442 0.0431519L1.72693 18.1497C1.81405 18.2565 1.9192 18.3472 2.03762 18.4178L11.4233 23.8429C11.6896 23.9991 12.0001 24.0439 12.2886 23.9545L22.1624 5.78103C22.0975 5.69613 22.014 5.62734 21.9182 5.58003Z" fill="url(#paint1_linear_79_345)"/>
<path d="M21.9184 18.4172C22.1847 18.261 22.3843 17.993 22.473 17.7028L12.1999 0.0202375C11.9337 -0.0243875 11.6451 -0.00207502 11.4012 0.1543L2.08203 5.5573L12.1332 23.9989C12.2663 23.9764 12.4219 23.9317 12.555 23.8648L21.9184 18.4172Z" fill="url(#paint2_linear_79_345)"/>
<defs>
<linearGradient id="paint0_linear_79_345" x1="15.793" y1="4.19485" x2="7.26197" y2="21.4899" gradientUnits="userSpaceOnUse">
<stop stop-color="#3F873F"/>
<stop offset="0.33" stop-color="#3F8B3D"/>
<stop offset="0.637" stop-color="#3E9638"/>
<stop offset="0.934" stop-color="#3DA92E"/>
<stop offset="1" stop-color="#3DAE2B"/>
</linearGradient>
<linearGradient id="paint1_linear_79_345" x1="10.5695" y1="13.2686" x2="34.3718" y2="-4.20969" gradientUnits="userSpaceOnUse">
<stop offset="0.138" stop-color="#3F873F"/>
<stop offset="0.402" stop-color="#52A044"/>
<stop offset="0.713" stop-color="#64B749"/>
<stop offset="0.908" stop-color="#6ABF4B"/>
</linearGradient>
<linearGradient id="paint2_linear_79_345" x1="1.18497" y1="11.9952" x2="22.8" y2="11.9952" gradientUnits="userSpaceOnUse">
<stop offset="0.092" stop-color="#6ABF4B"/>
<stop offset="0.287" stop-color="#64B749"/>
<stop offset="0.598" stop-color="#52A044"/>
<stop offset="0.862" stop-color="#3F873F"/>
</linearGradient>
</defs>
</svg>
