 <svg
      width="24"
      height="24"
      viewBox="0 0 24 24"
      fill="none"
      xmlns="http://www.w3.org/2000/svg"
    >
      <path
        d="M6.42151 11.442C8.21268 12.0709 10.102 12.3739 12 12.3367C13.8981 12.3737 15.7874 12.0704 17.5785 11.4412C18.9765 10.896 19.4723 10.29 19.4723 9.94124V7.27499C18.9834 7.60207 18.459 7.87279 17.9093 8.08199C16.0143 8.76041 14.0125 9.09121 12 9.05849C9.98776 9.09006 7.98621 8.75981 6.09076 8.08349C5.54066 7.87441 5.01626 7.60315 4.52776 7.27499V9.93749C4.52776 10.293 5.02501 10.896 6.42151 11.442ZM6.42151 16.4707C7.0542 16.7121 7.70665 16.898 8.37151 17.0265C9.5671 17.2573 10.7823 17.3711 12 17.3662C13.2176 17.3713 14.4329 17.2578 15.6285 17.0272C16.2934 16.8988 16.9458 16.7128 17.5785 16.4715C18.9765 15.9262 19.4723 15.3202 19.4723 14.9715V12.429C19.0683 12.6721 18.6436 12.8792 18.2033 13.0477C16.2125 13.7524 14.1114 14.0936 12 14.055C9.88838 14.0924 7.78723 13.7499 5.79676 13.044C5.35685 12.8744 4.9323 12.6674 4.52776 12.4252V14.97C4.52776 15.3195 5.02501 15.9232 6.42151 16.4707ZM12 22.5C16.125 22.5 19.4723 21.192 19.4723 19.5795V17.4517C19.1047 17.6733 18.7197 17.8644 18.321 18.0232L18.2033 18.0705C16.2129 18.7772 14.1118 19.1204 12 19.0837C9.88813 19.122 7.78668 18.7788 5.79676 18.0705L5.67901 18.0232C5.28032 17.8644 4.89529 17.6733 4.52776 17.4517V19.5795C4.52776 21.192 7.87501 22.5 12 22.5Z"
        fill="#33A9DC"
      />
      <path
        d="M12 7.341C16.1268 7.341 19.4723 6.03345 19.4723 4.4205C19.4723 2.80755 16.1268 1.5 12 1.5C7.8732 1.5 4.52776 2.80755 4.52776 4.4205C4.52776 6.03345 7.8732 7.341 12 7.341Z"
        fill="#33A9DC"
      />
    </svg>