<svg
      width="24"
      height="24"
      viewBox="0 0 24 24"
      fill="none"
      xmlns="http://www.w3.org/2000/svg"
    >
      <path
        d="M12.0007 4.80038C8.80068 4.80038 6.80137 6.39976 6.00075 9.59982C7.20037 8.00026 8.60081 7.40045 10.2004 7.80038C11.1137 8.02801 11.7664 8.69026 12.4892 9.42413C13.6656 10.6179 15.0272 12 18.0007 12C21.2006 12 23.2001 10.4004 24.0007 7.19963C22.8007 8.80001 21.4008 9.40013 19.8009 9.00001C18.8878 8.7722 18.2359 8.11013 17.5121 7.37626C16.3365 6.18245 14.9752 4.80038 12.0007 4.80038ZM6.00075 12C2.80087 12 0.801373 13.5996 0.000747681 16.8004C1.20062 15.2 2.6005 14.5999 4.20037 15C5.11369 15.2278 5.76637 15.8899 6.48919 16.6238C7.66556 17.8176 9.02718 19.1996 12.0007 19.1996C15.2006 19.1996 17.2001 17.6003 18.0007 14.4002C16.8007 15.9998 15.4008 16.5996 13.8009 16.1996C12.8878 15.972 12.2359 15.3098 11.5121 14.5759C10.3365 13.3821 8.97525 12 6.00075 12Z"
        fill="#38BDF8"
      />
    </svg>