<svg width="42" height="40" viewBox="0 0 42 40" fill="none" xmlns="http://www.w3.org/2000/svg">
<path d="M41.5 0.5V27.5833C41.5 29.5946 40.701 31.5234 39.2789 32.9456C37.8567 34.3677 35.9279 35.1667 33.9167 35.1667C31.9054 35.1667 29.9766 34.3677 28.5544 32.9456C27.1323 31.5234 26.3333 29.5946 26.3333 27.5833C26.3333 25.5721 27.1323 23.6433 28.5544 22.2211C29.9766 20.799 31.9054 20 33.9167 20C35.0867 20 36.1917 20.26 37.1667 20.7367V8.01833L15.5 12.6333V31.9167C15.5 33.9279 14.701 35.8567 13.2789 37.2789C11.8567 38.701 9.92789 39.5 7.91666 39.5C5.90544 39.5 3.97659 38.701 2.55444 37.2789C1.13228 35.8567 0.333328 33.9279 0.333328 31.9167C0.333328 29.9054 1.13228 27.9766 2.55444 26.5544C3.97659 25.1323 5.90544 24.3333 7.91666 24.3333C9.08666 24.3333 10.1917 24.5933 11.1667 25.07V7L41.5 0.5Z" fill="#CDCDCD" fill-opacity="0.866667"/>
</svg>
