  <svg
      width="24"
      height="24"
      viewBox="0 0 24 24"
      fill="none"
      xmlns="http://www.w3.org/2000/svg"
    >
      <path
        d="M12.4373 13.131C12.4823 12.3356 12.8736 11.6335 13.4657 11.1371C14.0458 10.6493 14.8247 10.351 15.6799 10.351C16.5306 10.351 17.3093 10.6491 17.8886 11.1371C18.4817 11.6335 18.8706 12.3356 18.9171 13.131C18.9621 13.9466 18.6315 14.7079 18.0536 15.2717C17.4615 15.8436 16.6236 16.2049 15.6799 16.2049C14.7354 16.2049 13.8938 15.8458 13.3054 15.2717C12.7253 14.7081 12.3954 13.951 12.4418 13.1348L12.4373 13.131Z"
        fill="#235785"
      />
      <path
        d="M7.35844 14.8129C7.36369 15.1241 7.46419 15.7297 7.61344 16.2011C7.92882 17.2016 8.46413 18.1273 9.20532 18.9384C9.96694 19.7756 10.9067 20.4487 11.9897 20.9278C13.1284 21.4284 14.3644 21.6847 15.6469 21.6847C16.9294 21.6831 18.1654 21.4222 19.3039 20.9156C20.3869 20.4315 21.327 19.7591 22.0883 18.9174C22.8334 18.0973 23.367 17.1724 23.6803 16.1711C23.8372 15.6738 23.9375 15.1604 23.9794 14.6406C24.0184 14.1362 24.0019 13.6271 23.9301 13.1181C23.7897 12.1371 23.4436 11.197 22.9144 10.3592C22.4318 9.58106 21.8051 8.90418 21.06 8.33175L21.0623 8.331L13.5707 2.61112C13.5639 2.60587 13.5579 2.60062 13.5512 2.59612C13.0601 2.22075 12.2304 2.22225 11.6931 2.59762C11.1467 2.97843 11.0837 3.60731 11.5701 4.00312L11.5678 4.00462L14.6957 6.53287L5.17276 6.54243H5.16001C4.37307 6.54318 3.61519 7.056 3.46688 7.70737C3.31313 8.36756 3.84844 8.91862 4.66913 8.91862L4.66763 8.92162L9.49313 8.91262L0.858757 15.4732C0.848257 15.4815 0.836257 15.4897 0.825757 15.498C0.0129447 16.1156 -0.249368 17.1461 0.262507 17.7937C0.783382 18.4541 1.88738 18.4586 2.70882 17.7975L7.4072 13.9706C7.4072 13.9706 7.33819 14.4877 7.34419 14.7951L7.35844 14.8129ZM19.4634 16.5414C18.4944 17.5217 17.1354 18.0808 15.6709 18.0808C14.2026 18.0831 12.8436 17.5337 11.8744 16.5542C11.4008 16.0744 11.0537 15.528 10.8379 14.9434C10.6269 14.3681 10.5455 13.7533 10.5996 13.143C10.6509 12.5475 10.8285 11.9697 11.1204 11.4482C11.403 10.9393 11.7936 10.4769 12.2717 10.0856C13.2154 9.32475 14.4129 8.90812 15.6654 8.90812C16.9234 8.90662 18.1211 9.31574 19.0648 10.0774C19.5429 10.4664 19.932 10.9266 20.2161 11.4354C20.5087 11.9569 20.6861 12.5351 20.7362 13.131C20.7895 13.7411 20.7082 14.3554 20.4979 14.9306C20.2828 15.5197 19.935 16.0661 19.4604 16.5459L19.4634 16.5414Z"
        fill="#E87500"
      />
    </svg>