   <svg
      width="24"
      height="24"
      viewBox="0 0 24 24"
      fill="none"
      xmlns="http://www.w3.org/2000/svg"
    >
      <path
        d="M0.652001 0.76001C0.555375 0.759925 0.460025 0.782067 0.373324 0.824723C0.286624 0.86738 0.210897 0.929408 0.152001 1.00601C-0.199999 1.45401 0.117001 1.90401 0.514001 2.26801C0.720001 2.45701 2.284 4.06201 3.942 5.79501C4.46365 5.06229 5.0732 4.39632 5.757 3.81201C3.667 2.51501 1.694 1.26601 1.461 1.10001C1.201 0.91401 0.917001 0.76201 0.652001 0.76001ZM5.757 3.81201C7.605 4.96001 9.543 6.14401 10.45 6.65201C11.919 7.47301 14.208 9.33601 14.542 11.086C15.077 11.552 16.724 13.002 17.138 13.499C17.836 13.288 18.656 13.632 19.198 14.619C20.064 16.202 19.425 18.366 17.23 19.607C17.1349 19.6999 17.0362 19.789 16.934 19.874L17.23 19.607C18.37 18.139 16.516 17.167 16.055 15.743C15.9695 15.4923 15.9321 15.2276 15.945 14.963C15.412 14.681 13.835 13.511 13.15 12.998C11.349 13.158 8.943 11.225 7.8 9.91801C7.1 9.11601 5.48 7.40101 3.942 5.79501C2.6136 7.6623 1.8986 9.89641 1.896 12.188C1.896 14.3739 2.54419 16.5107 3.7586 18.3282C4.97301 20.1457 6.69909 21.5622 8.71858 22.3987C10.7381 23.2352 12.9603 23.4541 15.1041 23.0276C17.248 22.6012 19.2173 21.5486 20.7629 20.003C22.3086 18.4573 23.3612 16.488 23.7876 14.3441C24.2141 12.2003 23.9952 9.97808 23.1587 7.95859C22.3222 5.9391 20.9057 4.21302 19.0882 2.99861C17.2707 1.7842 15.1339 1.13601 12.948 1.13601C10.308 1.14001 7.757 2.09001 5.757 3.81201ZM14.467 11.364C13.952 11.49 13.499 12.195 13.349 12.67C13.311 12.785 13.309 12.973 13.415 13.012C14.217 13.604 14.971 14.18 15.815 14.712C15.977 14.319 16.561 13.749 16.911 13.512L14.467 11.364ZM2.937 13.003C3.749 14.901 8.735 20.173 14.997 15.698C14.9933 15.9411 15.0319 16.1831 15.111 16.413C15.571 17.833 17.471 18.84 16.349 20.303C14.214 21.667 11.349 21.504 9.36 20.831C5.802 19.627 3.447 16.499 2.937 13.003ZM16.719 13.703L16.654 13.752C16.65 13.756 16.6463 13.7587 16.643 13.76C16.6463 13.756 16.6507 13.7533 16.654 13.752C16.678 13.737 16.697 13.718 16.719 13.704V13.703Z"
        fill="black"
      />
    </svg>